<svg width="53" height="53" viewBox="0 0 53 53" fill="none" xmlns="http://www.w3.org/2000/svg">
<g id="fluent:food-24-filled">
<path id="Vector" d="M39.2662 7.34827C39.7874 7.34834 40.2904 7.53969 40.6799 7.88604C41.0694 8.23239 41.3183 8.70964 41.3792 9.22727L41.3941 9.47624V43.5239C41.3935 44.0662 41.1859 44.5879 40.8135 44.9823C40.4412 45.3767 39.9323 45.614 39.3909 45.6458C38.8494 45.6776 38.3163 45.5014 37.9004 45.1533C37.4844 44.8052 37.2171 44.3114 37.1531 43.7728L37.1382 43.5239V32.884H35.0102C34.489 32.8839 33.9859 32.6926 33.5964 32.3462C33.2069 31.9999 32.9581 31.5226 32.8971 31.005L32.8822 30.756V17.9881C32.8822 13.2853 36.0742 7.34827 39.2662 7.34827ZM26.4983 7.34827C27.0195 7.34834 27.5226 7.53969 27.9121 7.88604C28.3016 8.23239 28.5504 8.70964 28.6114 9.22727L28.6263 9.47624V20.1161C28.626 22.0034 27.9989 23.8371 26.8434 25.3292C25.6879 26.8213 24.0695 27.8874 22.2424 28.3599V43.5239C22.2418 44.0662 22.0341 44.5879 21.6617 44.9823C21.2894 45.3767 20.7805 45.614 20.2391 45.6458C19.6976 45.6776 19.1645 45.5014 18.7486 45.1533C18.3327 44.8052 18.0654 44.3114 18.0013 43.7728L17.9864 43.5239V28.3599C16.2318 27.9063 14.6676 26.9048 13.5214 25.501C12.3752 24.0972 11.7067 22.3644 11.6131 20.5545L11.6025 20.1161V9.47624C11.6031 8.93386 11.8108 8.41219 12.1831 8.0178C12.5554 7.6234 13.0643 7.38607 13.6057 7.35428C14.1472 7.3225 14.6803 7.49866 15.0963 7.84678C15.5122 8.19489 15.7795 8.68869 15.8435 9.22727L15.8584 9.47624V20.1161C15.8584 20.8632 16.0551 21.5971 16.4286 22.244C16.8022 22.891 17.3394 23.4282 17.9864 23.8018V9.47624C17.987 8.93386 18.1947 8.41219 18.567 8.0178C18.9393 7.6234 19.4482 7.38607 19.9897 7.35428C20.5311 7.3225 21.0643 7.49866 21.4802 7.84678C21.8961 8.19489 22.1634 8.68869 22.2275 9.22727L22.2424 9.47624L22.2445 23.8018C22.8383 23.4585 23.3404 22.9768 23.7079 22.3977C24.0755 21.8186 24.2976 21.1592 24.3554 20.4757L24.3703 20.1161V9.47624C24.3703 8.91187 24.5945 8.37061 24.9936 7.97154C25.3927 7.57246 25.9339 7.34827 26.4983 7.34827Z" fill="#4CAF50"/>
</g>
</svg>
